<svg width="20" height="19" viewBox="0 0 20 19" fill="none" xmlns="http://www.w3.org/2000/svg">
    <path fill-rule="evenodd" clip-rule="evenodd"
        d="M12.2124 5.26241C12.2124 7.90617 10.0489 10.0248 7.34933 10.0248C4.6507 10.0248 2.48631 7.90617 2.48631 5.26241C2.48631 2.61865 4.6507 0.5 7.34933 0.5C10.0489 0.5 12.2124 2.61865 12.2124 5.26241ZM0 15.4174C0 12.97 3.38553 12.3577 7.34933 12.3577C11.3347 12.3577 14.6987 12.9911 14.6987 15.4404C14.6987 17.8877 11.3131 18.5 7.34933 18.5C3.364 18.5 0 17.8666 0 15.4174ZM14.1734 5.34875C14.1734 6.69506 13.7605 7.95131 13.0364 8.99482C12.9611 9.10214 13.0276 9.24683 13.1587 9.26983C13.3407 9.29954 13.5276 9.31774 13.7184 9.32158C15.6167 9.37045 17.3202 8.17362 17.7908 6.37118C18.4885 3.69676 16.4415 1.29543 13.8339 1.29543C13.5511 1.29543 13.2801 1.32418 13.0159 1.37688C12.9797 1.38454 12.9405 1.40179 12.921 1.43246C12.8955 1.47174 12.9141 1.52253 12.9396 1.55607C13.7233 2.63216 14.1734 3.94206 14.1734 5.34875ZM17.3173 11.2023C18.5932 11.4466 19.4317 11.944 19.7791 12.6694C20.0736 13.2635 20.0736 13.9534 19.7791 14.5475C19.2478 15.6705 17.5335 16.0318 16.8672 16.1247C16.7292 16.1439 16.6186 16.0289 16.6333 15.8928C16.9738 12.7805 14.2664 11.3048 13.5658 10.9656C13.5364 10.9493 13.5296 10.9263 13.5325 10.911C13.5345 10.9014 13.5472 10.8861 13.5697 10.8832C15.0854 10.8545 16.7155 11.0586 17.3173 11.2023Z"
        fill="#6470FF" />
</svg>
    