<svg width="20" height="20" viewBox="0 0 20 20" fill="none" xmlns="http://www.w3.org/2000/svg">
    <path fill-rule="evenodd" clip-rule="evenodd"
        d="M7.5915 12.7068C11.2805 12.7068 14.4335 13.2658 14.4335 15.4988C14.4335 17.7318 11.3015 18.3068 7.5915 18.3068C3.9015 18.3068 0.749496 17.7528 0.749496 15.5188C0.749496 13.2848 3.8805 12.7068 7.5915 12.7068Z"
        stroke="#75777E" stroke-width="1.5" stroke-linecap="round" stroke-linejoin="round" />
    <path opacity="0.4" fill-rule="evenodd" clip-rule="evenodd"
        d="M7.59149 9.51976C5.16949 9.51976 3.20549 7.55676 3.20549 5.13476C3.20549 2.71276 5.16949 0.749756 7.59149 0.749756C10.0125 0.749756 11.9765 2.71276 11.9765 5.13476C11.9855 7.54776 10.0355 9.51076 7.62249 9.51976H7.59149Z"
        stroke="#75777E" stroke-width="1.5" stroke-linecap="round" stroke-linejoin="round" />
    <path opacity="0.4"
        d="M14.4831 8.38153C16.0841 8.15653 17.3171 6.78253 17.3201 5.11953C17.3201 3.48053 16.1251 2.12053 14.5581 1.86353"
        stroke="#75777E" stroke-width="1.5" stroke-linecap="round" stroke-linejoin="round" />
    <path
        d="M16.5954 12.2322C18.1464 12.4632 19.2294 13.0072 19.2294 14.1272C19.2294 14.8982 18.7194 15.3982 17.8954 15.7112"
        stroke="#75777E" stroke-width="1.5" stroke-linecap="round" stroke-linejoin="round" />
</svg>
    