<svg width="21" height="21" viewBox="0 0 21 21" fill="none" xmlns="http://www.w3.org/2000/svg">
    <path fill-rule="evenodd" clip-rule="evenodd"
        d="M14.5137 19.9999H6.1659C3.09954 19.9999 0.747137 18.8924 1.41533 14.4347L2.19336 8.39351C2.60526 6.16925 4.02402 5.31799 5.26888 5.31799H15.4474C16.7105 5.31799 18.0469 6.23332 18.5229 8.39351L19.3009 14.4347C19.8684 18.3889 17.5801 19.9999 14.5137 19.9999Z"
        stroke="#75777E" stroke-width="1.5" stroke-linecap="round" stroke-linejoin="round" />
    <path opacity="0.4"
        d="M14.651 5.09836C14.651 2.71229 12.7167 0.777993 10.3307 0.777993V0.777993C9.18166 0.773124 8.07805 1.22615 7.26386 2.03691C6.44967 2.84766 5.99198 3.94935 5.99199 5.09836H5.99199"
        stroke="#75777E" stroke-width="1.5" stroke-linecap="round" stroke-linejoin="round" />
    <path d="M13.2963 9.60183H13.2506" stroke="#75777E" stroke-width="1.5" stroke-linecap="round"
        stroke-linejoin="round" />
    <path d="M7.46567 9.60183H7.41991" stroke="#75777E" stroke-width="1.5" stroke-linecap="round"
        stroke-linejoin="round" />
</svg>
    