<svg xmlns="http://www.w3.org/2000/svg" xmlns:xlink="http://www.w3.org/1999/xlink" width="24px"
    height="25px" viewBox="0 0 24 25" version="1.1">
    <g id="surface1">
        <path fill="#6470FF"
            d="M 4.421875 2.046875 C 3.640625 2.277344 2.964844 2.988281 2.714844 3.820312 C 2.617188 4.160156 2.613281 4.230469 2.613281 6.394531 C 2.613281 8.773438 2.617188 8.835938 2.855469 9.355469 C 3.132812 9.960938 3.640625 10.457031 4.25 10.707031 L 4.554688 10.835938 L 6.535156 10.851562 C 7.898438 10.859375 8.621094 10.851562 8.84375 10.8125 C 9.765625 10.644531 10.578125 9.8125 10.796875 8.808594 C 10.855469 8.535156 10.863281 8.117188 10.855469 6.25 L 10.839844 4.023438 L 10.714844 3.6875 C 10.40625 2.867188 9.78125 2.257812 9.035156 2.046875 C 8.667969 1.945312 4.773438 1.945312 4.421875 2.046875 Z M 4.421875 2.046875 " />
        <path fill="#6470FF"
            d="M 15.75 2.046875 C 15.332031 2.171875 15.007812 2.378906 14.671875 2.734375 C 14.296875 3.136719 14.089844 3.539062 13.984375 4.074219 C 13.886719 4.570312 13.886719 8.257812 13.984375 8.761719 C 14.164062 9.671875 14.777344 10.410156 15.609375 10.722656 C 15.917969 10.835938 15.941406 10.835938 18.050781 10.835938 C 20.160156 10.835938 20.183594 10.835938 20.492188 10.722656 C 21.226562 10.453125 21.773438 9.867188 22.058594 9.054688 C 22.160156 8.773438 22.160156 8.695312 22.179688 6.5625 C 22.191406 4.121094 22.183594 3.984375 21.90625 3.390625 C 21.609375 2.769531 20.914062 2.183594 20.292969 2.027344 C 19.96875 1.949219 16.03125 1.964844 15.75 2.046875 Z M 15.75 2.046875 " />
        <path fill="#6470FF"
            d="M 4.597656 14.019531 C 3.589844 14.238281 2.792969 15.136719 2.636719 16.226562 C 2.597656 16.460938 2.589844 17.304688 2.597656 18.644531 L 2.613281 20.710938 L 2.730469 21.058594 C 3.03125 21.933594 3.65625 22.554688 4.46875 22.785156 C 4.683594 22.84375 5.113281 22.859375 6.75 22.859375 C 8.554688 22.859375 8.792969 22.847656 9.066406 22.769531 C 9.804688 22.550781 10.417969 21.929688 10.730469 21.105469 C 10.839844 20.808594 10.839844 20.796875 10.855469 18.582031 C 10.867188 16.113281 10.859375 15.980469 10.582031 15.394531 C 10.390625 14.988281 9.910156 14.476562 9.53125 14.273438 C 9 13.984375 8.867188 13.972656 6.726562 13.976562 C 5.65625 13.980469 4.699219 14 4.597656 14.019531 Z M 4.597656 14.019531 " />
        <path fill="#6470FF"
            d="M 15.824219 14.039062 C 14.914062 14.277344 14.175781 15.085938 13.984375 16.070312 C 13.886719 16.566406 13.886719 20.261719 13.984375 20.757812 C 14.175781 21.730469 14.882812 22.535156 15.765625 22.785156 C 15.964844 22.84375 16.433594 22.859375 18.050781 22.859375 C 20.25 22.859375 20.320312 22.847656 20.84375 22.582031 C 21.195312 22.398438 21.714844 21.835938 21.90625 21.441406 C 22.183594 20.847656 22.191406 20.710938 22.179688 18.269531 L 22.164062 16.070312 L 22.039062 15.730469 C 21.730469 14.871094 21.078125 14.246094 20.289062 14.046875 C 19.894531 13.945312 16.203125 13.941406 15.824219 14.039062 Z M 15.824219 14.039062 " />
    </g>
</svg>