<svg xmlns="http://www.w3.org/2000/svg" xmlns:xlink="http://www.w3.org/1999/xlink" width="22px"
    height="23px" viewBox="0 0 22 23" version="1.1">
    <g id="surface1">
        <path fill="#6470FF"
            d="M 6.121094 3.160156 C 4.371094 3.453125 3.140625 4.550781 2.671875 6.246094 C 2.429688 7.136719 2.4375 6.960938 2.4375 12.671875 C 2.4375 17.566406 2.441406 17.949219 2.511719 18.394531 C 2.878906 20.597656 4.117188 21.894531 6.1875 22.234375 C 6.519531 22.285156 7.421875 22.300781 11.394531 22.300781 C 16.742188 22.300781 16.691406 22.304688 17.554688 21.996094 C 19.164062 21.425781 20.136719 20.035156 20.339844 18.007812 C 20.371094 17.644531 20.382812 16.101562 20.371094 12.375 C 20.355469 7.347656 20.351562 7.234375 20.265625 6.8125 C 20.019531 5.632812 19.585938 4.800781 18.890625 4.179688 C 18.371094 3.714844 17.808594 3.429688 16.996094 3.210938 C 16.636719 3.117188 16.570312 3.117188 11.566406 3.105469 C 7.40625 3.097656 6.4375 3.105469 6.121094 3.160156 Z M 11.722656 6.953125 C 11.886719 7.015625 12.078125 7.210938 12.144531 7.390625 C 12.195312 7.511719 12.203125 8.40625 12.203125 12.621094 C 12.203125 16.105469 12.191406 17.75 12.15625 17.835938 C 11.945312 18.441406 11.152344 18.527344 10.816406 17.976562 L 10.699219 17.785156 L 10.699219 7.46875 L 10.816406 7.273438 C 11.007812 6.960938 11.40625 6.820312 11.722656 6.953125 Z M 7.648438 10.191406 C 7.746094 10.246094 7.855469 10.363281 7.910156 10.46875 L 8.007812 10.652344 L 8.007812 17.773438 L 7.902344 17.96875 C 7.632812 18.46875 6.929688 18.472656 6.621094 17.976562 L 6.503906 17.785156 L 6.492188 14.320312 C 6.484375 12 6.496094 10.792969 6.527344 10.671875 C 6.570312 10.476562 6.738281 10.246094 6.882812 10.164062 C 7.128906 10.019531 7.367188 10.027344 7.648438 10.191406 Z M 15.9375 13.652344 C 16.09375 13.738281 16.257812 13.960938 16.3125 14.160156 C 16.347656 14.273438 16.355469 14.910156 16.347656 16.058594 L 16.335938 17.785156 L 16.214844 17.976562 C 15.882812 18.527344 15.089844 18.441406 14.878906 17.835938 C 14.847656 17.753906 14.832031 17.078125 14.832031 15.929688 C 14.832031 14.171875 14.835938 14.148438 14.929688 13.972656 C 15.121094 13.601562 15.578125 13.457031 15.9375 13.652344 Z M 15.9375 13.652344 " />
    </g>
</svg>