<svg width="30" height="32" viewBox="0 0 30 32" fill="none" xmlns="http://www.w3.org/2000/svg">
    <g clip-path="url(#clip0_14_13782)">
        <path
            d="M24.483 0H4.66829C2.10014 0 0.0182381 2.0819 0.0182381 4.65005V26.8499C0.0182381 29.4181 2.10014 31.5 4.66829 31.5H24.483C27.0511 31.5 29.133 29.4181 29.133 26.8499V4.65005C29.133 2.0819 27.0511 0 24.483 0Z"
            fill="#514CA0" />
        <path
            d="M24.483 0H4.66829C2.10014 0 0.0182381 2.0819 0.0182381 4.65005V26.8499C0.0182381 29.4181 2.10014 31.5 4.66829 31.5H24.483C27.0511 31.5 29.133 29.4181 29.133 26.8499V4.65005C29.133 2.0819 27.0511 0 24.483 0Z"
            fill="url(#paint0_linear_14_13782)" />
        <path
            d="M24.421 8.64355H4.69382C2.10149 8.64355 0 10.745 0 13.3374V26.8061C0 29.3984 2.10149 31.4999 4.69382 31.4999H24.421C27.0133 31.4999 29.1148 29.3984 29.1148 26.8061V13.3374C29.1148 10.745 27.0133 8.64355 24.421 8.64355Z"
            fill="url(#paint1_linear_14_13782)" />
        <path
            d="M10.1389 6.24752C10.8459 6.24752 11.4191 5.67439 11.4191 4.96739C11.4191 4.26039 10.8459 3.68726 10.1389 3.68726C9.43194 3.68726 8.8588 4.26039 8.8588 4.96739C8.8588 5.67439 9.43194 6.24752 10.1389 6.24752Z"
            fill="white" />
        <path
            d="M19.0087 6.24752C19.7157 6.24752 20.2888 5.67439 20.2888 4.96739C20.2888 4.26039 19.7157 3.68726 19.0087 3.68726C18.3017 3.68726 17.7286 4.26039 17.7286 4.96739C17.7286 5.67439 18.3017 6.24752 19.0087 6.24752Z"
            fill="white" />
        <path
            d="M19.8293 12.1667C19.6689 12.1667 19.5412 12.2908 19.5303 12.4512C19.3844 15.0625 17.2107 17.145 14.5593 17.145C11.9078 17.145 9.7378 15.0662 9.58827 12.4512C9.58097 12.2908 9.44968 12.1667 9.28921 12.1667H7.69907C7.52766 12.1667 7.39272 12.309 7.40001 12.4804C7.56413 16.2916 10.7043 19.3333 14.5556 19.3333C18.407 19.3333 21.5544 16.2916 21.7185 12.4804C21.7258 12.309 21.5909 12.1667 21.4195 12.1667H19.8257H19.8293Z"
            fill="white" />
    </g>
    <defs>
        <linearGradient id="paint0_linear_14_13782" x1="0.0182381" y1="15.7482" x2="29.1294"
            y2="15.7482" gradientUnits="userSpaceOnUse">
            <stop stop-color="#2C3279" />
            <stop offset="0.91" stop-color="#2C3279" />
        </linearGradient>
        <linearGradient id="paint1_linear_14_13782" x1="0" y1="20.0699" x2="29.1148" y2="20.0699"
            gradientUnits="userSpaceOnUse">
            <stop offset="0.17" stop-color="#A777B4" />
            <stop offset="0.2" stop-color="#9F76B4" />
            <stop offset="0.38" stop-color="#7671B4" />
            <stop offset="0.53" stop-color="#5C6EB4" />
            <stop offset="0.62" stop-color="#536DB4" />
            <stop offset="1" stop-color="#2C3279" />
        </linearGradient>
        <clipPath id="clip0_14_13782">
            <rect width="29.133" height="31.5" fill="white" />
        </clipPath>
    </defs>
</svg>
    