<svg xmlns="http://www.w3.org/2000/svg" xmlns:xlink="http://www.w3.org/1999/xlink" width="22px"
    height="21px" viewBox="0 0 21 21" version="1.1">
    <g id="surface1">
        <path fill="#6470FF"
            d="M 10.035156 2.445312 C 9.558594 2.578125 9.265625 2.773438 8.65625 3.378906 C 7.90625 4.121094 7.925781 4.113281 6.855469 4.152344 C 5.941406 4.183594 5.742188 4.21875 5.320312 4.433594 C 4.746094 4.726562 4.296875 5.253906 4.054688 5.925781 C 3.960938 6.175781 3.949219 6.28125 3.921875 7.089844 C 3.890625 8.242188 3.890625 8.242188 3.148438 9.03125 C 2.382812 9.839844 2.171875 10.285156 2.167969 11.113281 C 2.164062 11.59375 2.222656 11.855469 2.433594 12.308594 C 2.574219 12.609375 2.664062 12.730469 3.140625 13.230469 C 3.894531 14.027344 3.890625 14.023438 3.925781 15.175781 C 3.949219 15.992188 3.960938 16.09375 4.054688 16.34375 C 4.300781 17.015625 4.75 17.542969 5.320312 17.835938 C 5.742188 18.050781 5.941406 18.085938 6.855469 18.117188 C 7.921875 18.15625 7.914062 18.152344 8.613281 18.847656 C 9.261719 19.496094 9.457031 19.632812 9.992188 19.804688 C 10.292969 19.910156 10.941406 19.925781 11.296875 19.847656 C 11.847656 19.722656 12.125 19.542969 12.753906 18.917969 C 13.527344 18.152344 13.527344 18.152344 14.621094 18.117188 C 15.554688 18.089844 15.714844 18.054688 16.179688 17.808594 C 16.746094 17.5 17.214844 16.921875 17.417969 16.285156 C 17.511719 15.976562 17.527344 15.859375 17.550781 15.074219 C 17.574219 14.226562 17.578125 14.199219 17.691406 13.980469 C 17.761719 13.839844 18.003906 13.542969 18.34375 13.1875 C 18.789062 12.714844 18.90625 12.570312 19.027344 12.304688 C 19.378906 11.554688 19.378906 10.714844 19.027344 9.964844 C 18.90625 9.699219 18.789062 9.554688 18.34375 9.082031 C 18.003906 8.726562 17.761719 8.429688 17.691406 8.289062 C 17.578125 8.070312 17.574219 8.039062 17.550781 7.195312 C 17.527344 6.410156 17.511719 6.289062 17.417969 5.984375 C 17.214844 5.34375 16.746094 4.769531 16.179688 4.460938 C 15.714844 4.214844 15.554688 4.179688 14.621094 4.152344 C 13.527344 4.117188 13.527344 4.117188 12.753906 3.351562 C 12.140625 2.75 11.910156 2.59375 11.40625 2.449219 C 11.015625 2.339844 10.453125 2.339844 10.035156 2.445312 Z M 8.804688 8.148438 C 9 8.230469 9.09375 8.320312 9.191406 8.519531 C 9.429688 9 9.128906 9.570312 8.601562 9.644531 C 8.449219 9.671875 8.375 9.652344 8.203125 9.566406 C 7.925781 9.425781 7.796875 9.234375 7.773438 8.9375 C 7.726562 8.347656 8.285156 7.925781 8.804688 8.148438 Z M 13.25 8.164062 C 13.652344 8.351562 13.796875 8.84375 13.578125 9.269531 C 13.546875 9.335938 12.480469 10.449219 11.214844 11.738281 C 9.371094 13.625 8.886719 14.097656 8.761719 14.140625 C 8.304688 14.289062 7.824219 13.972656 7.773438 13.480469 C 7.738281 13.070312 7.671875 13.144531 10.148438 10.605469 C 11.617188 9.09375 12.492188 8.222656 12.597656 8.167969 C 12.800781 8.066406 13.035156 8.066406 13.25 8.164062 Z M 13.25 12.683594 C 13.449219 12.78125 13.605469 12.976562 13.667969 13.214844 C 13.789062 13.675781 13.414062 14.179688 12.9375 14.183594 C 12.738281 14.183594 12.417969 14.003906 12.296875 13.820312 C 12.214844 13.699219 12.195312 13.617188 12.195312 13.394531 C 12.195312 13.046875 12.304688 12.859375 12.59375 12.710938 C 12.832031 12.585938 13.023438 12.582031 13.25 12.683594 Z M 13.25 12.683594 " />
    </g>
</svg>