<svg width="20" height="21" viewBox="0 0 20 21" fill="none" xmlns="http://www.w3.org/2000/svg">
    <path
        d="M2.7943 5.55575C2.7943 4.30675 3.8073 3.29375 5.0553 3.29375H6.0843C6.6803 3.29375 7.2533 3.05775 7.6773 2.63675L8.3963 1.91675C9.2773 1.03175 10.7093 1.02775 11.5943 1.90875L11.6033 1.91675L12.3233 2.63675C12.7463 3.05775 13.3193 3.29375 13.9163 3.29375H14.9443C16.1933 3.29375 17.2063 4.30675 17.2063 5.55575V6.58275C17.2063 7.18075 17.4423 7.75275 17.8633 8.17675L18.5833 8.89675C19.4683 9.77775 19.4733 11.2087 18.5923 12.0947L18.5833 12.1037L17.8633 12.8237C17.4423 13.2457 17.2063 13.8197 17.2063 14.4157V15.4447C17.2063 16.6937 16.1933 17.7057 14.9443 17.7057H13.9163C13.3193 17.7057 12.7463 17.9427 12.3233 18.3637L11.6033 19.0827C10.7233 19.9687 9.2913 19.9727 8.4053 19.0917C8.4023 19.0887 8.3993 19.0857 8.3963 19.0827L7.6773 18.3637C7.2533 17.9427 6.6803 17.7057 6.0843 17.7057H5.0553C3.8073 17.7057 2.7943 16.6937 2.7943 15.4447V14.4157C2.7943 13.8197 2.5573 13.2457 2.1363 12.8237L1.4173 12.1037C0.531302 11.2227 0.527302 9.79075 1.4083 8.90575L1.4173 8.89675L2.1363 8.17675C2.5573 7.75275 2.7943 7.18075 2.7943 6.58275V5.55575"
        stroke="#75777E" stroke-width="1.5" stroke-linecap="round" stroke-linejoin="round" />
    <path opacity="0.4" d="M7.43001 13.0694L12.57 7.92944" stroke="#75777E" stroke-width="1.5"
        stroke-linecap="round" stroke-linejoin="round" />
    <path opacity="0.4"
        d="M12.5667 13.8224C12.3667 13.8224 12.1767 13.7424 12.0367 13.6024C11.9667 13.5324 11.9167 13.4424 11.8767 13.3524C11.8367 13.2624 11.8167 13.1734 11.8167 13.0724C11.8167 12.9724 11.8367 12.8724 11.8767 12.7824C11.9167 12.6924 11.9667 12.6124 12.0367 12.5424C12.3167 12.2624 12.8167 12.2624 13.0967 12.5424C13.1667 12.6124 13.2267 12.6924 13.2667 12.7824C13.2967 12.8724 13.3167 12.9724 13.3167 13.0724C13.3167 13.1734 13.2967 13.2624 13.2667 13.3524C13.2267 13.4424 13.1667 13.5324 13.0967 13.6024C12.9567 13.7424 12.7667 13.8224 12.5667 13.8224Z"
        fill="#130F26" />
    <path opacity="0.4"
        d="M7.42661 8.68277C7.32661 8.68277 7.23661 8.66177 7.14661 8.62177C7.05661 8.58177 6.96661 8.53277 6.89661 8.46277C6.82661 8.38277 6.77661 8.30277 6.73661 8.21277C6.69661 8.12177 6.67661 8.03277 6.67661 7.93277C6.67661 7.83177 6.69661 7.73277 6.73661 7.64277C6.77661 7.55277 6.82661 7.46277 6.89661 7.40277C7.18661 7.12177 7.67661 7.12177 7.95661 7.40277C8.09661 7.54177 8.17661 7.73277 8.17661 7.93277C8.17661 8.03277 8.16661 8.12177 8.12661 8.21277C8.08661 8.30277 8.02661 8.38277 7.95661 8.46277C7.88661 8.53277 7.80661 8.58177 7.71661 8.62177C7.62661 8.66177 7.52661 8.68277 7.42661 8.68277Z"
        fill="#130F26" />
</svg>
    