<svg width="16" height="16" viewBox="0 0 16 16" fill="none" xmlns="http://www.w3.org/2000/svg">
  <path fill-rule="evenodd" clip-rule="evenodd"
    d="M9.08742 2.66016H11.3899C14.1574 2.66016 15.5074 4.13766 15.4999 7.16766V10.8202C15.4999 13.7152 13.7149 15.5002 10.8124 15.5002H5.17992C2.29242 15.5002 0.499924 13.7152 0.499924 10.8127V5.18016C0.499924 2.07516 1.87992 0.500159 4.60242 0.500159H5.78742C6.48567 0.492659 7.13742 0.815159 7.56492 1.36266L8.22492 2.24016C8.43492 2.50266 8.74992 2.66016 9.08742 2.66016ZM4.52742 10.4677H11.4724C11.7799 10.4677 12.0274 10.2127 12.0274 9.90516C12.0274 9.59016 11.7799 9.34266 11.4724 9.34266H4.52742C4.21242 9.34266 3.96492 9.59016 3.96492 9.90516C3.96492 10.2127 4.21242 10.4677 4.52742 10.4677Z"
    fill="#151824" />
</svg>
  