<svg width="22" height="23" viewBox="0 0 22 23" fill="none" xmlns="http://www.w3.org/2000/svg">
    <path d="M7.84825 11.814V15.559" stroke="#75777E" stroke-width="1.5" stroke-linecap="round"
        stroke-linejoin="round" />
    <path d="M9.75903 13.6868H5.9379" stroke="#A6A7AC" stroke-width="1.5" stroke-linecap="round"
        stroke-linejoin="round" />
    <path d="M14.3661 11.9281H14.2591" stroke="#75777E" stroke-width="1.5" stroke-linecap="round"
        stroke-linejoin="round" />
    <path d="M16.1796 15.5025H16.0726" stroke="#A6A7AC" stroke-width="1.5" stroke-linecap="round"
        stroke-linejoin="round" />
    <path opacity="0.4"
        d="M7.07216 1.5C7.07216 2.24048 7.68464 2.84076 8.44018 2.84076H9.49666C10.6623 2.84492 11.6064 3.77026 11.6117 4.91266V5.58771"
        stroke="#75777E" stroke-width="1.5" stroke-linecap="round" stroke-linejoin="round" />
    <path fill-rule="evenodd" clip-rule="evenodd"
        d="M15.4283 21.4625C12.4231 21.5134 9.47303 21.5113 6.57275 21.4625C3.3535 21.4625 1 19.1663 1 16.0112V11.3616C1 8.20651 3.3535 5.91029 6.57275 5.91029C9.48893 5.86044 12.4411 5.86148 15.4283 5.91029C18.6476 5.91029 21 8.20755 21 11.3616V16.0112C21 19.1663 18.6476 21.4625 15.4283 21.4625Z"
        stroke="#75777E" stroke-width="1.5" stroke-linecap="round" stroke-linejoin="round" />
</svg>
    