<svg width="20" height="21" viewBox="0 0 20 21" fill="none" xmlns="http://www.w3.org/2000/svg">
    <path fill-rule="evenodd" clip-rule="evenodd"
        d="M13.164 4.58252C13.4791 4.58684 13.7949 4.59117 14.1119 4.59441C17.5172 4.59441 20 7.02216 20 10.3748V14.6811C20 18.0337 17.5172 20.4615 14.1119 20.4615C12.7478 20.4904 11.3837 20.5 10.0098 20.5C8.63592 20.5 7.25221 20.4904 5.88813 20.4615C2.48283 20.4615 0 18.0337 0 14.6811V10.3748C0 7.02216 2.48283 4.59441 5.89794 4.59441C7.18351 4.57514 8.49853 4.55588 9.83317 4.55588V4.3921C9.83317 3.72736 9.2738 3.18786 8.60648 3.18786H7.63494C6.52601 3.18786 5.62316 2.30154 5.62316 1.22254C5.62316 0.827553 5.95682 0.5 6.35918 0.5C6.77134 0.5 7.09519 0.827553 7.09519 1.22254C7.09519 1.51156 7.34053 1.74277 7.63494 1.74277H8.60648C10.0883 1.75241 11.2954 2.93738 11.3052 4.38247V4.56551C11.9239 4.56551 12.5425 4.574 13.164 4.58252ZM8.85182 13.2457H7.82139V14.2669C7.82139 14.6618 7.48773 14.9894 7.08538 14.9894C6.67321 14.9894 6.34936 14.6618 6.34936 14.2669V13.2457H5.30913C4.90677 13.2457 4.57311 12.9277 4.57311 12.5231C4.57311 12.1281 4.90677 11.8006 5.30913 11.8006H6.34936V10.789C6.34936 10.394 6.67321 10.0665 7.08538 10.0665C7.48773 10.0665 7.82139 10.394 7.82139 10.789V11.8006H8.85182C9.25417 11.8006 9.58783 12.1281 9.58783 12.5231C9.58783 12.9277 9.25417 13.2457 8.85182 13.2457ZM13.0226 11.6175H13.1207C13.5231 11.6175 13.8567 11.2996 13.8567 10.895C13.8567 10.5 13.5231 10.1724 13.1207 10.1724H13.0226C12.6104 10.1724 12.2866 10.5 12.2866 10.895C12.2866 11.2996 12.6104 11.6175 13.0226 11.6175ZM14.7007 14.9316H14.7988C15.2012 14.9316 15.5348 14.6137 15.5348 14.2091C15.5348 13.8141 15.2012 13.4865 14.7988 13.4865H14.7007C14.2875 13.4865 13.9647 13.8141 13.9647 14.2091C13.9647 14.6137 14.2875 14.9316 14.7007 14.9316Z"
        fill="#6470FF" />
</svg>
