<svg xmlns="http://www.w3.org/2000/svg" xmlns:xlink="http://www.w3.org/1999/xlink" width="22px"
    height="21px" viewBox="0 0 21 21" version="1.1">
    <g id="surface1">
        <path stroke="none" fill-rule="nonzero" fill="#6470FF" fill-opacity="1"
            d="M 6.144531 2.035156 C 4.476562 2.289062 3.152344 3.351562 2.546875 4.910156 C 2.375 5.363281 2.238281 5.984375 2.183594 6.53125 C 2.128906 7.144531 2.132812 14.382812 2.183594 14.992188 C 2.324219 16.515625 2.960938 17.769531 4 18.582031 C 4.335938 18.84375 5.058594 19.210938 5.460938 19.324219 C 6.195312 19.53125 6.214844 19.53125 10.578125 19.53125 C 12.984375 19.53125 14.835938 19.515625 15.085938 19.492188 C 17.039062 19.300781 18.570312 17.953125 19.070312 15.976562 C 19.273438 15.195312 19.273438 15.148438 19.273438 10.59375 L 19.273438 6.324219 L 19.179688 5.886719 C 19.007812 5.074219 18.757812 4.484375 18.363281 3.902344 C 17.84375 3.152344 17.058594 2.554688 16.203125 2.261719 C 15.453125 2.003906 15.769531 2.015625 10.859375 2.007812 C 8.394531 2.003906 6.269531 2.015625 6.144531 2.035156 Z M 15.289062 3.257812 C 16.828125 3.558594 17.867188 4.753906 18.078125 6.46875 C 18.109375 6.699219 18.121094 7.703125 18.113281 9.3125 L 18.101562 11.808594 L 17.675781 11.480469 C 16.3125 10.425781 15.847656 10.191406 15.105469 10.1875 C 14.617188 10.1875 14.296875 10.269531 13.863281 10.5 C 13.40625 10.742188 13.058594 11.097656 12.515625 11.871094 C 11.3125 13.578125 10.929688 13.976562 10.457031 13.976562 C 10.292969 13.976562 9.859375 13.757812 9.382812 13.441406 C 8.589844 12.910156 8.140625 12.75 7.523438 12.785156 C 7.070312 12.804688 6.734375 12.921875 6.316406 13.199219 C 5.871094 13.492188 5.554688 13.839844 4.578125 15.050781 L 3.664062 16.191406 L 3.609375 16.042969 C 3.511719 15.800781 3.398438 15.296875 3.351562 14.90625 C 3.324219 14.664062 3.316406 13.132812 3.324219 10.492188 C 3.339844 6.550781 3.34375 6.441406 3.425781 6.066406 C 3.628906 5.167969 4.121094 4.335938 4.722656 3.882812 C 4.953125 3.710938 5.398438 3.476562 5.683594 3.378906 C 6.199219 3.203125 6.226562 3.203125 10.683594 3.199219 C 14.40625 3.191406 14.996094 3.203125 15.289062 3.257812 Z M 15.289062 3.257812 " />
        <path stroke="none" fill-rule="nonzero" fill="#6470FF" fill-opacity="1"
            d="M 7.078125 5.59375 C 6.707031 5.71875 6.503906 5.847656 6.207031 6.152344 C 5.890625 6.484375 5.726562 6.785156 5.636719 7.207031 C 5.570312 7.558594 5.570312 7.746094 5.640625 8.105469 C 5.828125 9.003906 6.539062 9.699219 7.414062 9.835938 C 8.425781 9.992188 9.445312 9.34375 9.75 8.339844 C 9.863281 7.964844 9.867188 7.417969 9.75 7.050781 C 9.550781 6.386719 8.980469 5.796875 8.34375 5.597656 C 8 5.492188 7.398438 5.488281 7.078125 5.59375 Z M 7.078125 5.59375 " />
    </g>
</svg>