<svg width="20" height="21" viewBox="0 0 20 21" fill="none" xmlns="http://www.w3.org/2000/svg">
    <path fill-rule="evenodd" clip-rule="evenodd"
        d="M14.3027 1.24976H5.65069C2.63869 1.24976 0.749695 3.38376 0.749695 6.40376V14.5498C0.749695 17.5698 2.63069 19.7038 5.65069 19.7038H14.2977C17.3227 19.7038 19.2027 17.5698 19.2027 14.5498V6.40376C19.2067 3.38376 17.3257 1.24976 14.3027 1.24976Z"
        stroke="#75777E" stroke-width="1.5" stroke-linecap="round" stroke-linejoin="round" />
    <path opacity="0.4" fill-rule="evenodd" clip-rule="evenodd"
        d="M8.70309 7.28496C8.70309 8.30496 7.87709 9.13096 6.85709 9.13096C5.83809 9.13096 5.01109 8.30496 5.01109 7.28496C5.01109 6.26496 5.83809 5.43896 6.85709 5.43896C7.87609 5.43996 8.70209 6.26596 8.70309 7.28496Z"
        stroke="#75777E" stroke-width="1.5" stroke-linecap="round" stroke-linejoin="round" />
    <path opacity="0.4"
        d="M19.207 13.4509C18.284 12.5009 16.509 10.5819 14.579 10.5819C12.648 10.5819 11.535 14.8149 9.678 14.8149C7.821 14.8149 6.134 12.9009 4.646 14.1279C3.158 15.3539 1.75 17.8609 1.75 17.8609"
        stroke="#75777E" stroke-width="1.5" stroke-linecap="round" stroke-linejoin="round" />
</svg>
    