<svg width="20" height="19" viewBox="0 0 20 19" fill="none" xmlns="http://www.w3.org/2000/svg">
    <path fill-rule="evenodd" clip-rule="evenodd"
        d="M14.9394 0.5C16.2804 0.5 17.5704 1.03 18.5194 1.981C19.4694 2.93 20.0004 4.21 20.0004 5.55V13.45C20.0004 16.24 17.7304 18.5 14.9394 18.5H5.06043C2.26943 18.5 0.000427246 16.24 0.000427246 13.45V5.55C0.000427246 2.76 2.25943 0.5 5.06043 0.5H14.9394ZM16.5304 7.04L16.6104 6.96C16.8494 6.67 16.8494 6.25 16.5994 5.96C16.4604 5.811 16.2694 5.72 16.0704 5.7C15.8604 5.689 15.6604 5.76 15.5094 5.9L11.0004 9.5C10.4204 9.981 9.58943 9.981 9.00043 9.5L4.50043 5.9C4.18943 5.67 3.75943 5.7 3.50043 5.97C3.23043 6.24 3.20043 6.67 3.42943 6.97L3.56043 7.1L8.11043 10.65C8.67043 11.09 9.34943 11.33 10.0604 11.33C10.7694 11.33 11.4604 11.09 12.0194 10.65L16.5304 7.04Z"
        fill="#6470FF" />
</svg>

    