<svg width="221" height="223" viewBox="0 0 221 223" fill="none" xmlns="http://www.w3.org/2000/svg">
  <path
    d="M220.5 113C220.5 133.085 208.266 160.472 188.408 182.856C168.558 205.231 141.183 222.5 111 222.5C50.5564 222.5 3.49173 167.753 1.50011 112.982C0.505297 85.6238 10.075 62.5093 28.7886 44.1065C47.5148 25.6914 75.4204 11.9736 111.116 3.48634C146.608 -4.95246 173.925 12.2735 192.414 36.7388C210.916 61.2215 220.5 92.8672 220.5 113Z"
    stroke="currentColor" />
  <path
    d="M214.512 112.894C206.536 149.781 189.975 172.009 170.757 186.852C153.707 200.02 134.557 207.388 117.35 214.007C115.138 214.859 112.958 215.697 110.818 216.534C92.3228 223.771 70.2728 216.53 50.9078 198.078C31.5555 179.637 14.9735 150.067 7.49062 112.901C0.0250788 75.8224 11.6092 50.0149 32.1502 33.4517C52.7272 16.8596 82.3512 9.5 111 9.5C139.648 9.5 169.523 16.9841 190.226 33.6396C210.892 50.2655 222.474 76.0706 214.512 112.894Z"
    stroke="currentColor" />
  <path
    d="M196.502 112.949C193.26 144.879 183.664 166.243 169.036 179.631C154.41 193.017 134.675 198.5 111 198.5C87.3631 198.5 62.3576 189.663 45.0802 174.561C27.8185 159.473 18.2948 138.164 25.4804 113.138C32.7022 87.9862 47.3979 66.6876 63.6523 51.6164C79.9239 36.5293 97.6856 27.7464 111.009 27.4997C124.403 27.2518 147.422 32.7198 166.271 46.2189C185.093 59.6988 199.731 81.1619 196.502 112.949Z"
    stroke="currentColor" />
  <path
    d="M187.5 113C187.5 148.624 175.428 167.696 159.913 177.895C144.356 188.121 125.236 189.5 111 189.5C103.901 189.5 98.0612 188.877 92.6708 186.921C87.2864 184.967 82.3159 181.671 76.9809 176.273C66.2841 165.452 54.192 146.265 34.431 112.746C24.5878 96.05 21.8661 82.9909 23.8777 72.7999C25.8862 62.6248 32.636 55.1986 41.9901 49.8082C60.7369 39.0052 89.7418 36.5 111 36.5C132.278 36.5 151.365 37.8872 165.15 48.0894C178.897 58.2629 187.5 77.3143 187.5 113Z"
    stroke="currentColor" />
</svg>
  