<svg width="226" height="225" viewBox="0 0 226 225" fill="none" xmlns="http://www.w3.org/2000/svg">
  <path
    d="M220.537 114.81C208.039 145.306 195.758 169.598 179.054 186.271C162.376 202.918 141.258 212 111 212C80.6319 212 53.8986 208.869 34.4431 195.216C15.0263 181.59 2.74726 157.397 1.49984 114.985C0.252967 72.5925 12.5318 45.2593 32.6012 28.5089C52.6914 11.741 80.679 5.5 111 5.5C141.259 5.5 174.892 17.7088 197.83 37.5035C220.756 57.2876 232.93 84.5714 220.537 114.81Z"
    stroke="currentColor" />
  <path
    d="M214.5 114.995C214.001 164.188 202.373 189.986 183.869 203.534C165.325 217.111 139.743 218.5 111 218.5C82.4529 218.5 63.2125 206.835 47.7849 188.058C33.2334 170.347 22.0901 146.331 9.77059 119.779C9.0032 118.126 8.23125 116.462 7.45363 114.789C-5.70027 86.4958 1.86012 50.7007 21.8826 26.9472C31.8864 15.0793 44.9828 6.24147 60.1253 2.8472C75.2615 -0.545665 92.4821 1.49133 110.761 11.4392C129.178 21.4622 144.965 26.8178 158.257 30.753C161.222 31.6309 164.058 32.437 166.769 33.2074C176.235 35.8978 184.169 38.1527 190.71 41.5075C199.069 45.7951 205.12 51.8694 209.036 62.9865C212.967 74.1426 214.75 90.3821 214.5 114.995Z"
    stroke="currentColor" />
  <path
    d="M196.512 115.108C203.497 146.788 199.343 168.063 184.972 181.447C170.559 194.87 145.732 200.5 111 200.5C93.6657 200.5 82.1674 197.973 74.0371 193.522C65.9223 189.08 61.1078 182.691 57.1977 174.84C55.2399 170.908 53.5126 166.619 51.7097 162.023C51.472 161.418 51.233 160.806 50.992 160.19C49.4072 156.138 47.7366 151.866 45.786 147.432C41.2881 137.205 35.295 126.096 25.3778 114.672C15.5654 103.369 11.7303 92.4336 12.4988 82.4054C13.2675 72.3732 18.6504 63.1569 27.4578 55.3108C45.0866 39.6064 76.3262 29.5 111 29.5C145.727 29.5 163.516 35.1289 174.425 48.5035C179.895 55.2097 183.669 63.9019 186.951 74.9162C189.79 84.4441 192.25 95.6709 195.129 108.808C195.578 110.861 196.039 112.961 196.512 115.108Z"
    stroke="currentColor" />
  <path
    d="M187.607 115.309C195.778 125.708 197.692 135.613 195.387 144.626C193.075 153.666 186.497 161.892 177.516 168.855C159.549 182.784 132.158 191.5 111 191.5C100.499 191.5 93.1822 188.02 87.4216 182.491C81.6369 176.939 77.4051 169.308 73.123 160.959C72.5519 159.846 71.9801 158.72 71.4038 157.585C63.3635 141.753 54.4461 124.193 34.2156 114.549C23.5887 109.482 18.7727 102.251 18.4767 94.3017C18.1789 86.3093 22.4428 77.4494 30.3009 69.1564C46.0084 52.5797 75.8715 38.5 111 38.5C128.596 38.5 140.067 40.6858 147.911 44.573C155.728 48.4466 159.985 54.032 163.107 60.9555C164.672 64.4268 165.95 68.2308 167.247 72.3305C167.539 73.2514 167.831 74.1874 168.128 75.1374C169.15 78.4094 170.225 81.8487 171.49 85.4171C174.76 94.6376 179.314 104.753 187.607 115.309Z"
    stroke="currentColor" />
</svg>