<svg width="224" height="223" viewBox="0 0 224 223" fill="none" xmlns="http://www.w3.org/2000/svg">
  <path
    d="M220.51 110.1C224.746 130.907 223.789 148.128 219.053 162.255C214.318 176.379 205.796 187.44 194.851 195.917C172.944 212.883 141.322 219.5 111 219.5C80.6532 219.5 53.5505 214.999 33.9076 199.111C14.2863 183.241 1.99901 155.913 1.49999 109.995C1.00104 64.0825 13.2881 36.7598 33.1554 20.8907C53.0486 5.00078 80.6525 0.5 111 0.5C141.303 0.5 164.407 7.10789 182.061 24.0483C199.732 41.0057 212.017 68.3852 220.51 110.1Z"
    stroke="currentColor" />
  <path
    d="M214.521 110.144C220.253 129.209 220.293 143.435 216.28 154.486C212.27 165.53 204.182 173.483 193.492 179.947C182.792 186.417 169.526 191.371 155.209 196.435C153.513 197.035 151.802 197.636 150.08 198.242C137.277 202.743 123.814 207.476 110.789 213.547C81.4525 227.221 50.4178 222.857 29.3298 204.374C8.24879 185.897 -2.9798 153.228 7.48616 110.118C17.983 66.881 29.5969 41.0078 45.6782 25.9272C61.7327 10.8717 82.3221 6.5 111 6.5C139.63 6.5 159.732 13.349 175.555 29.6606C191.411 46.0054 203.024 71.9031 214.521 110.144Z"
    stroke="currentColor" />
  <path
    d="M196.735 110.424C200.641 112.865 202.954 115.986 203.959 119.572C204.967 123.17 204.672 127.286 203.266 131.724C200.45 140.611 193.218 150.667 183.463 160.141C173.717 169.607 161.492 178.452 148.749 184.929C136 191.409 122.768 195.5 111 195.5C63.8521 195.5 35.4686 157.796 25.4899 109.898C20.5333 86.1059 30.0652 64.7754 46.7782 49.3676C63.4983 33.9532 87.3771 24.5 111 24.5C134.458 24.5 147.828 40.7704 159.384 59.7599C161.753 63.6523 164.052 67.6709 166.346 71.68C169.62 77.4033 172.883 83.1074 176.323 88.3976C182.187 97.4171 188.642 105.366 196.735 110.424Z"
    stroke="currentColor" />
  <path
    d="M187.5 110C187.5 154.215 153.258 186.5 111 186.5C89.7506 186.5 64.3788 183.621 47.4495 172.643C39.0029 167.166 32.674 159.683 29.9872 149.536C27.2978 139.38 28.2406 126.491 34.4668 110.178C46.9767 77.4024 55.5623 58.2609 66.285 47.2869C76.9496 36.3726 89.7754 33.5 111 33.5C153.258 33.5 187.5 65.7845 187.5 110Z"
    stroke="currentColor" />
</svg>
  