<svg width="229" height="222" viewBox="0 0 229 222" fill="none" xmlns="http://www.w3.org/2000/svg">
  <path
    d="M223.52 109.86C211.774 150.098 199.488 177.495 182.611 194.839C165.764 212.152 144.286 219.5 114 219.5C83.7502 219.5 61.0113 209.549 43.5203 190.908C26.0098 172.246 13.7248 144.84 4.48335 109.872C-4.71197 75.0792 7.51553 47.7716 29.6031 29.1321C51.7158 10.4715 83.72 0.5 114 0.5C144.315 0.5 177.567 7.86364 200.291 25.2099C211.645 33.8767 220.364 45.0298 224.793 59.0026C229.222 72.9762 229.373 89.8105 223.52 109.86Z"
    stroke="currentColor" />
  <path
    d="M217.56 110.238C221.154 116.869 222.766 122.898 222.793 128.437C222.82 133.974 221.263 139.052 218.475 143.785C212.886 153.272 202.356 161.359 189.743 168.883C181.062 174.062 171.443 178.947 161.827 183.831C157.475 186.041 153.124 188.251 148.861 190.487C135.205 197.651 122.459 205.086 113.651 213.641C105.084 221.964 92.584 223.057 78.9765 219.067C65.3746 215.079 50.7689 206.034 38.1535 194.259C25.5394 182.486 14.95 168.017 9.35031 153.214C3.75157 138.413 3.15479 123.326 10.4366 110.243C14.712 102.562 18.7346 94.9069 22.653 87.45C25.4902 82.0507 28.2728 76.7554 31.0572 71.6293C37.6993 59.4012 44.3768 48.0869 51.9171 38.4328C66.98 19.1474 85.4711 6.5 114 6.5C142.531 6.5 161.147 19.0249 176.271 38.2467C187.478 52.4903 196.74 70.3704 206.677 89.554C210.183 96.3207 213.772 103.25 217.56 110.238Z"
    stroke="currentColor" />
  <path
    d="M199.538 109.81C186.779 140.831 177.184 162.242 164.877 175.916C152.619 189.535 137.644 195.5 114 195.5C90.373 195.5 62.2363 185.169 43.3861 169.305C33.9645 161.376 26.8959 152.093 23.8464 142.065C20.8024 132.056 21.75 121.265 28.4277 110.259C33.5893 101.752 38.187 93.3515 42.5717 85.3398C43.9269 82.8636 45.2617 80.4247 46.5865 78.0312C52.2031 67.8843 57.6414 58.5532 63.7112 50.6162C69.7785 42.6823 76.4644 36.1584 84.5665 31.6158C92.6645 27.0756 102.203 24.5 114 24.5C137.688 24.5 165.444 30.4887 184.078 44.1532C193.386 50.9788 200.4 59.7055 203.519 70.5445C206.638 81.3821 205.88 94.3898 199.538 109.81Z"
    stroke="currentColor" />
  <path
    d="M190.525 110.157C196.885 129.36 197.891 143.694 195.222 154.395C192.558 165.072 186.222 172.185 177.765 176.939C169.29 181.703 158.681 184.1 147.504 185.3C136.331 186.5 124.636 186.5 114 186.5C103.412 186.5 95.9022 185.005 89.9502 181.976C84.0026 178.949 79.5602 174.364 75.1493 168.088C71.9802 163.578 68.8468 158.225 65.187 151.972C63.7405 149.501 62.2118 146.89 60.5662 144.134C54.7655 134.421 47.5376 122.967 37.3972 109.696C27.3264 96.5172 24.4957 85.2248 26.4548 75.7102C28.4162 66.185 35.2036 58.3141 44.642 52.0414C63.5304 39.4884 92.7982 33.5 114 33.5C135.319 33.5 147.974 33.5244 158.551 42.9975C163.852 47.7454 168.659 54.8953 173.739 65.6971C178.817 76.497 184.152 90.9111 190.525 110.157Z"
    stroke="currentColor" />
</svg>
  