<svg version="1.0" xmlns="http://www.w3.org/2000/svg" width="20" height="21" viewBox="0 0 20 21">
    <path
        d="M9.194 1.283c-.447.158-.851.532-1.055.984-.08.178-.108.315-.135.689-.027.39-.05.502-.146.718a1.7 1.7 0 0 1-.766.78c-.239.124-.29.133-.663.133-.4 0-.408-.004-.77-.187l-.365-.187h-.462c-.45 0-.47.004-.732.141-.404.216-.631.49-1.047 1.27-.412.78-.477.967-.481 1.39-.004.694.254 1.175.866 1.607.481.344.755.925.708 1.51-.042.535-.277.934-.746 1.27-.374.261-.559.477-.713.83a1.9 1.9 0 0 0 .02 1.486c.038.091.23.452.423.805.393.71.57.917.978 1.133.22.116.304.137.608.15.412.02.659-.042 1.04-.262.808-.46 1.852.012 2.163.983.027.092.07.345.089.565.027.31.062.452.154.66.216.468.658.85 1.12.962.093.025.555.046 1.02.046.998 0 1.202-.046 1.583-.344.42-.337.608-.714.674-1.345.065-.652.254-1.058.639-1.361.3-.237.554-.328.95-.328.332-.004.363.004.678.17.44.228.62.274 1.028.253.278-.012.381-.041.597-.15.4-.198.635-.485 1.074-1.294s.508-1.03.485-1.536c-.027-.601-.277-1.02-.854-1.435-.593-.424-.859-1.092-.701-1.76.112-.473.32-.76.781-1.091.147-.104.32-.266.39-.357a1.9 1.9 0 0 0 .28-1.752c-.119-.328-.743-1.452-.939-1.685a1.6 1.6 0 0 0-.477-.373c-.25-.133-.332-.154-.632-.17-.4-.021-.593.02-1.016.232-.293.145-.327.154-.716.154s-.416-.004-.697-.158c-.55-.29-.832-.755-.863-1.42-.019-.435-.038-.535-.177-.817a2.1 2.1 0 0 0-.827-.834l-.262-.133-.943-.008c-.832-.008-.97 0-1.163.066m1.852 6.337c.404.146.681.34.978.681.423.481.623 1.037.62 1.722-.004 1.303-.952 2.362-2.199 2.453-1.344.1-2.518-1.038-2.522-2.449q-.007-1.041.663-1.772c.642-.701 1.593-.946 2.46-.635"
        fill="#6470FF" />
</svg>