<svg width="20" height="21" viewBox="0 0 20 21" fill="none" xmlns="http://www.w3.org/2000/svg">
    <path fill-rule="evenodd" clip-rule="evenodd"
        d="M18.8066 6.12361L18.1842 5.04352C17.6576 4.1296 16.4907 3.81432 15.5755 4.33872V4.33872C15.1399 4.59534 14.6201 4.66815 14.1307 4.54109C13.6413 4.41402 13.2226 4.09752 12.9668 3.66137C12.8023 3.38415 12.7139 3.06839 12.7105 2.74604V2.74604C12.7254 2.22922 12.5304 1.7284 12.17 1.35767C11.8096 0.986937 11.3145 0.777863 10.7975 0.778076H9.54348C9.03695 0.77807 8.5513 0.979914 8.19398 1.33895C7.83667 1.69798 7.63716 2.18459 7.63959 2.69112V2.69112C7.62458 3.73693 6.77246 4.57681 5.72655 4.5767C5.4042 4.57336 5.08844 4.48494 4.81122 4.32041V4.32041C3.89605 3.79601 2.7291 4.11129 2.20252 5.02522L1.53433 6.12361C1.00839 7.03639 1.31938 8.20261 2.22998 8.73231V8.73231C2.82189 9.07404 3.18652 9.70559 3.18652 10.3891C3.18652 11.0725 2.82189 11.7041 2.22998 12.0458V12.0458C1.32054 12.5719 1.00921 13.7353 1.53433 14.6454V14.6454L2.16591 15.7346C2.41263 16.1798 2.82659 16.5083 3.31618 16.6474C3.80577 16.7866 4.33062 16.7249 4.77461 16.476V16.476C5.21106 16.2213 5.73117 16.1516 6.21932 16.2822C6.70748 16.4128 7.12322 16.733 7.37415 17.1717C7.53868 17.4489 7.62709 17.7646 7.63044 18.087V18.087C7.63044 19.1435 8.48694 20 9.54348 20H10.7975C11.8505 20.0001 12.7055 19.1491 12.7105 18.0962V18.0962C12.7081 17.588 12.9089 17.1 13.2681 16.7407C13.6274 16.3814 14.1155 16.1807 14.6236 16.1831C14.9452 16.1917 15.2596 16.2798 15.5389 16.4394V16.4394C16.4517 16.9653 17.6179 16.6544 18.1476 15.7438V15.7438L18.8066 14.6454C19.0617 14.2075 19.1318 13.686 19.0012 13.1964C18.8706 12.7067 18.5502 12.2894 18.111 12.0367V12.0367C17.6717 11.784 17.3514 11.3666 17.2208 10.8769C17.0902 10.3873 17.1602 9.86582 17.4153 9.42796C17.5812 9.13834 17.8214 8.8982 18.111 8.73231V8.73231C19.0161 8.20289 19.3264 7.04349 18.8066 6.13277V6.13277V6.12361Z"
        stroke="#75777E" stroke-width="1.5" stroke-linecap="round" stroke-linejoin="round" />
    <circle opacity="0.4" cx="10.1751" cy="10.3891" r="2.63616" stroke="#75777E" stroke-width="1.5"
        stroke-linecap="round" stroke-linejoin="round" />
</svg>
    