<svg width="87" height="31" viewBox="0 0 87 31" fill="none" xmlns="http://www.w3.org/2000/svg">
    <path
        d="M2.17361 9.39466C1.47704 8.98985 0.940926 8.41362 0.565286 7.66234C0.189645 6.91106 0 6.02484 0 4.99639V4.98544C0 3.96429 0.189644 3.08171 0.572578 2.33408C0.951866 1.58644 1.48798 1.01387 2.18091 0.609048C2.87383 0.204232 3.68347 0 4.61345 0C5.45955 0 6.1926 0.160468 6.80894 0.485051C7.42529 0.809633 7.91034 1.23633 8.26045 1.76879C8.61056 2.30125 8.81114 2.88842 8.85855 3.52665V3.58864H6.736L6.71777 3.51571C6.6266 3.04889 6.40777 2.65137 6.06131 2.32314C5.71484 1.99491 5.24074 1.83079 4.64263 1.83079C4.17217 1.83079 3.76006 1.95844 3.4063 2.21737C3.05254 2.47631 2.77901 2.83736 2.58572 3.31147C2.39243 3.78194 2.29761 4.34722 2.29761 5.00733V5.01827C2.29761 5.68202 2.39608 6.25095 2.59301 6.72142C2.78995 7.19188 3.06348 7.55293 3.41724 7.80457C3.771 8.05622 4.18311 8.18021 4.65357 8.18021C5.22615 8.18021 5.69296 8.02339 6.04672 7.7134C6.40048 7.4034 6.6266 6.99494 6.73236 6.4953L6.75059 6.41507H8.88044L8.87314 6.47707C8.81114 7.14082 8.59962 7.73893 8.23857 8.27139C7.87751 8.80385 7.38882 9.22326 6.77977 9.5369C6.17072 9.84689 5.45955 10.0037 4.64992 10.0037C3.7017 10.0037 2.87748 9.79948 2.18455 9.39466H2.17361Z"
        fill="url(#paint0_linear_14_13505)" />
    <path
        d="M12.006 9.39834C11.3094 8.99717 10.7733 8.42095 10.3867 7.67696C10.0038 6.92932 9.81047 6.03946 9.81047 5.00736V4.98912C9.81047 3.96067 10.0038 3.07445 10.3903 2.33046C10.7769 1.58647 11.3167 1.01025 12.0133 0.609079C12.7098 0.207909 13.5195 0.00732422 14.4531 0.00732422C15.3867 0.00732422 16.2073 0.207909 16.9039 0.609079C17.6005 1.01025 18.1439 1.58283 18.5304 2.32681C18.917 3.0708 19.1103 3.95702 19.1103 4.99277V5.011C19.1103 6.0504 18.917 6.94391 18.5341 7.6879C18.1512 8.43553 17.6114 9.00811 16.9148 9.40563C16.2182 9.80316 15.4013 10.0037 14.4567 10.0037C13.5122 10.0037 12.6952 9.80316 11.9987 9.40199L12.006 9.39834ZM15.715 7.80825C16.0651 7.56025 16.3349 7.1992 16.5246 6.72509C16.7142 6.25098 16.8091 5.6784 16.8091 5.00736V4.98912C16.8091 4.32537 16.7106 3.75644 16.5173 3.28597C16.324 2.81551 16.0505 2.45446 15.6967 2.20646C15.343 1.95847 14.9272 1.83447 14.4495 1.83447C13.9717 1.83447 13.5742 1.95847 13.2204 2.20646C12.8667 2.45446 12.5931 2.81551 12.3962 3.28597C12.1993 3.75644 12.1008 4.32537 12.1008 4.98912V5.00736C12.1008 5.6784 12.1993 6.25098 12.3962 6.72509C12.5931 7.1992 12.8667 7.56025 13.2204 7.80825C13.5742 8.05625 13.9899 8.18024 14.4677 8.18024C14.9454 8.18024 15.3576 8.05625 15.7113 7.80825H15.715Z"
        fill="url(#paint1_linear_14_13505)" />
    <path
        d="M20.5545 0.204232H22.8011V1.74691H22.8558C23.0563 1.22174 23.3919 0.798692 23.8623 0.481403C24.3328 0.164115 24.8871 0.00364708 25.5217 0.00364708C25.9703 0.00364708 26.3715 0.0802344 26.7289 0.233408C27.0863 0.386582 27.389 0.609049 27.6406 0.893514C27.8923 1.18163 28.0746 1.52809 28.1877 1.9402H28.2314C28.3883 1.54268 28.6144 1.19986 28.9061 0.911749C29.1979 0.623636 29.5443 0.40117 29.9382 0.240702C30.3321 0.0802339 30.7624 0 31.222 0C31.8565 0 32.4072 0.134939 32.8777 0.404817C33.3482 0.674695 33.7129 1.04669 33.9754 1.52809C34.238 2.0095 34.3693 2.57113 34.3693 3.2203V9.81042H32.1118V3.77464C32.1118 3.37712 32.0462 3.03795 31.9112 2.76078C31.78 2.4836 31.5867 2.27208 31.3314 2.1262C31.0761 1.98032 30.7624 1.90738 30.3905 1.90738C30.0185 1.90738 29.7085 1.99126 29.4349 2.15538C29.1614 2.32314 28.9462 2.5529 28.7931 2.8483C28.6399 3.14371 28.5633 3.48653 28.5633 3.87311V9.81042H26.3678V3.65794C26.3678 3.29689 26.2985 2.98324 26.1599 2.72431C26.0213 2.46537 25.8244 2.26478 25.5691 2.12255C25.3138 1.98032 25.0148 1.91103 24.661 1.91103C24.3073 1.91103 23.979 1.99855 23.7019 2.17361C23.4247 2.34867 23.2059 2.58937 23.0454 2.88842C22.8849 3.19112 22.8047 3.53759 22.8047 3.93146V9.81407H20.5582V0.204232H20.5545Z"
        fill="url(#paint2_linear_14_13505)" />
    <path
        d="M36.1746 0.204232H38.4211V1.74691H38.4758C38.6764 1.22174 39.012 0.798692 39.4824 0.481403C39.9529 0.164115 40.5072 0.00364708 41.1418 0.00364708C41.5904 0.00364708 41.9916 0.0802344 42.349 0.233408C42.7064 0.386582 43.0091 0.609049 43.2607 0.893514C43.5124 1.18163 43.6947 1.52809 43.8078 1.9402H43.8515C44.0083 1.54268 44.2345 1.19986 44.5262 0.911749C44.818 0.623636 45.1644 0.40117 45.5583 0.240702C45.9522 0.0802339 46.3825 0 46.8421 0C47.4766 0 48.0273 0.134939 48.4978 0.404817C48.9683 0.674695 49.333 1.04669 49.5955 1.52809C49.8581 2.0095 49.9894 2.57113 49.9894 3.2203V9.81042H47.7319V3.77464C47.7319 3.37712 47.6663 3.03795 47.5313 2.76078C47.4 2.4836 47.2068 2.27208 46.9515 2.1262C46.6962 1.98032 46.3825 1.90738 46.0105 1.90738C45.6385 1.90738 45.3286 1.99126 45.055 2.15538C44.7815 2.32314 44.5663 2.5529 44.4132 2.8483C44.26 3.14371 44.1834 3.48653 44.1834 3.87311V9.81042H41.9879V3.65794C41.9879 3.29689 41.9186 2.98324 41.78 2.72431C41.6414 2.46537 41.4445 2.26478 41.1892 2.12255C40.9339 1.98032 40.6349 1.91103 40.2811 1.91103C39.9273 1.91103 39.5991 1.99855 39.322 2.17361C39.0448 2.34867 38.826 2.58937 38.6655 2.88842C38.505 3.19112 38.4248 3.53759 38.4248 3.93146V9.81407H36.1782V0.204232H36.1746Z"
        fill="url(#paint3_linear_14_13505)" />
    <path
        d="M53.538 9.39468C52.845 8.98986 52.3162 8.41728 51.9479 7.6733C51.5795 6.92931 51.3935 6.05038 51.3935 5.03652V5.02922C51.3935 4.01901 51.5795 3.14008 51.9515 2.38515C52.3235 1.63387 52.845 1.0467 53.5197 0.630945C54.1944 0.215188 54.9895 0.00366211 55.9085 0.00366211C56.8276 0.00366211 57.6117 0.204247 58.2791 0.605416C58.9465 1.00659 59.4607 1.57187 59.8217 2.29762C60.1828 3.02338 60.3615 3.86948 60.3615 4.83593V5.56169H52.5095V4.05548H59.282L58.1952 5.45957V4.58794C58.1952 3.96065 58.0967 3.43549 57.9034 3.01973C57.7101 2.60397 57.4439 2.29033 57.1047 2.08245C56.7656 1.87457 56.3753 1.76881 55.934 1.76881C55.4928 1.76881 55.0879 1.87457 54.7415 2.08974C54.395 2.30492 54.1215 2.62221 53.9245 3.04526C53.7276 3.46831 53.6291 3.98254 53.6291 4.58794V5.45957C53.6291 6.04674 53.7276 6.54637 53.9245 6.95849C54.1215 7.37424 54.4023 7.68788 54.7634 7.91035C55.1244 8.12917 55.5584 8.24223 56.058 8.24223C56.4337 8.24223 56.7619 8.18388 57.0464 8.06353C57.3308 7.94682 57.5642 7.79365 57.7502 7.60765C57.9362 7.42165 58.0639 7.21742 58.1368 6.9986L58.1551 6.9366H60.2594L60.2411 7.03507C60.1609 7.40342 60.0187 7.76447 59.8071 8.11823C59.5956 8.47199 59.3112 8.78928 58.9538 9.07374C58.5963 9.35821 58.1733 9.58432 57.6846 9.74844C57.1959 9.9162 56.6379 9.99643 56.0179 9.99643C55.0588 9.99643 54.2309 9.7922 53.538 9.38739V9.39468Z"
        fill="url(#paint4_linear_14_13505)" />
    <path
        d="M61.802 0.204262H64.0485V1.86365H64.1032C64.2491 1.28377 64.5117 0.827899 64.8946 0.499669C65.2776 0.171439 65.748 0.00732422 66.306 0.00732422C66.4446 0.00732422 66.5795 0.0182652 66.7035 0.0365002C66.8275 0.0547351 66.937 0.0766172 67.0208 0.0984991V2.13717C66.9297 2.1007 66.802 2.07152 66.6343 2.046C66.4665 2.02047 66.2878 2.00953 66.0945 2.00953C65.6714 2.00953 65.3068 2.09705 64.9968 2.26846C64.6904 2.43987 64.4534 2.69151 64.2892 3.02704C64.1251 3.35891 64.0449 3.76373 64.0449 4.24149V9.81775H61.7983V0.204262H61.802Z"
        fill="url(#paint5_linear_14_13505)" />
    <path
        d="M69.581 9.39466C68.8845 8.98985 68.3484 8.41362 67.9727 7.66234C67.5934 6.91471 67.4074 6.02484 67.4074 4.99639V4.98544C67.4074 3.96429 67.5971 3.08171 67.98 2.33408C68.3593 1.58644 68.8954 1.01387 69.5883 0.609048C70.2813 0.204232 71.0909 0 72.0209 0C72.867 0 73.5964 0.160468 74.2127 0.485051C74.8291 0.809633 75.3141 1.23633 75.6642 1.76879C76.0144 2.30125 76.2149 2.88842 76.2623 3.52665V3.58864H74.1398L74.1216 3.51571C74.0304 3.04889 73.8116 2.65137 73.4651 2.32314C73.1186 1.99491 72.6445 1.83079 72.0464 1.83079C71.576 1.83079 71.1638 1.95844 70.8101 2.21737C70.4563 2.47631 70.1828 2.83736 69.9895 3.31147C69.7962 3.78194 69.7014 4.34722 69.7014 5.00733V5.01827C69.7014 5.68202 69.7999 6.25095 69.9968 6.72142C70.1937 7.19188 70.4673 7.55293 70.821 7.80457C71.1748 8.05622 71.5869 8.18021 72.0574 8.18021C72.6299 8.18021 73.0968 8.02339 73.4505 7.7134C73.8043 7.4034 74.0304 6.99494 74.1361 6.4953L74.1544 6.41507H76.2842L76.2769 6.47707C76.2149 7.14082 76.0034 7.73893 75.6423 8.27139C75.2813 8.80385 74.7926 9.22326 74.1835 9.5369C73.5745 9.84689 72.8633 10.0037 72.0537 10.0037C71.1055 10.0037 70.2813 9.79948 69.5883 9.39466H69.581Z"
        fill="url(#paint6_linear_14_13505)" />
    <path
        d="M79.366 9.39468C78.673 8.98986 78.1442 8.41728 77.7759 7.6733C77.4075 6.92931 77.2215 6.05038 77.2215 5.03652V5.02922C77.2215 4.01901 77.4075 3.14008 77.7795 2.38515C78.1515 1.63387 78.673 1.0467 79.3477 0.630945C80.0224 0.215188 80.8175 0.00366211 81.7365 0.00366211C82.6556 0.00366211 83.4397 0.204247 84.1071 0.605416C84.7745 1.00659 85.2887 1.57187 85.6497 2.29762C86.0108 3.02338 86.1895 3.86948 86.1895 4.83593V5.56169H78.3375V4.05548H85.11L84.0232 5.45957V4.58794C84.0232 3.96065 83.9247 3.43549 83.7314 3.01973C83.5381 2.60397 83.2719 2.29033 82.9327 2.08245C82.5936 1.87457 82.2033 1.76881 81.7621 1.76881C81.3208 1.76881 80.9159 1.87457 80.5695 2.08974C80.223 2.30492 79.9495 2.62221 79.7526 3.04526C79.5556 3.46831 79.4571 3.98254 79.4571 4.58794V5.45957C79.4571 6.04674 79.5556 6.54637 79.7526 6.95849C79.9495 7.37424 80.2303 7.68788 80.5914 7.91035C80.9524 8.12917 81.3864 8.24223 81.886 8.24223C82.2617 8.24223 82.5899 8.18388 82.8744 8.06353C83.1588 7.94682 83.3923 7.79365 83.5782 7.60765C83.7642 7.42165 83.8919 7.21742 83.9648 6.9986L83.9831 6.9366H86.0874L86.0692 7.03507C85.9889 7.40342 85.8467 7.76447 85.6352 8.11823C85.4236 8.47199 85.1392 8.78928 84.7818 9.07374C84.4244 9.35821 84.0013 9.58432 83.5126 9.74844C83.0239 9.9162 82.4659 9.99643 81.8459 9.99643C80.8868 9.99643 80.0589 9.7922 79.366 9.38739V9.39468Z"
        fill="url(#paint7_linear_14_13505)" />
    <path
        d="M1.62288 22.7865H0.309959V21.0468H1.62288V20.1314C1.62288 19.5042 1.72864 18.9863 1.93652 18.5815C2.1444 18.1767 2.46533 17.8776 2.90297 17.6807C3.33697 17.4837 3.90225 17.3853 4.59882 17.3853C4.82129 17.3853 5.04376 17.3962 5.26623 17.4144C5.48869 17.4327 5.6674 17.4545 5.80598 17.4764V19.0556C5.70751 19.0446 5.60175 19.0337 5.48505 19.0228C5.36834 19.0118 5.24799 19.0082 5.12764 19.0082C4.68635 19.0082 4.36177 19.1066 4.15389 19.3072C3.94601 19.5078 3.84025 19.8032 3.84025 20.1971V21.0505H5.76951V22.7901H3.88401V30.6603H1.62653V22.7901L1.62288 22.7865Z"
        fill="url(#paint8_linear_14_13505)" />
    <path d="M7.30857 17.575H9.56606V30.6567H7.30857V17.575Z" fill="url(#paint9_linear_14_13505)" />
    <path
        d="M13.2715 30.2448C12.5749 29.8436 12.0388 29.2674 11.6522 28.5234C11.2693 27.7758 11.076 26.8859 11.076 25.8538V25.8356C11.076 24.8071 11.2693 23.9209 11.6559 23.1769C12.0425 22.4329 12.5822 21.8567 13.2788 21.4555C13.9754 21.0543 14.785 20.8538 15.7186 20.8538C16.6523 20.8538 17.4728 21.0543 18.1694 21.4555C18.866 21.8567 19.4094 22.4293 19.796 23.1732C20.1826 23.9172 20.3758 24.8035 20.3758 25.8392V25.8574C20.3758 26.8968 20.1826 27.7903 19.7996 28.5343C19.4167 29.282 18.8769 29.8545 18.1804 30.2521C17.4838 30.6496 16.6668 30.8502 15.7223 30.8502C14.7777 30.8502 13.9608 30.6496 13.2642 30.2484L13.2715 30.2448ZM16.9805 28.6547C17.3306 28.4067 17.6005 28.0456 17.7901 27.5715C17.9798 27.0974 18.0746 26.5248 18.0746 25.8538V25.8356C18.0746 25.1718 17.9761 24.6029 17.7828 24.1324C17.5895 23.6619 17.316 23.3009 16.9623 23.0529C16.6085 22.8049 16.1927 22.6809 15.715 22.6809C15.2372 22.6809 14.8397 22.8049 14.4859 23.0529C14.1322 23.3009 13.8587 23.6619 13.6617 24.1324C13.4648 24.6029 13.3663 25.1718 13.3663 25.8356V25.8538C13.3663 26.5248 13.4648 27.0974 13.6617 27.5715C13.8587 28.0456 14.1322 28.4067 14.4859 28.6547C14.8397 28.9027 15.2555 29.0267 15.7332 29.0267C16.211 29.0267 16.6231 28.9027 16.9768 28.6547H16.9805Z"
        fill="url(#paint10_linear_14_13505)" />
    <path
        d="M21.0395 21.0469H23.3043L24.9272 28.4247H24.971L26.8492 21.0469H29.0082L30.8937 28.4247H30.9374L32.5603 21.0469H34.7923L32.1993 30.6567H29.8251L27.9287 23.6326H27.8849L25.9994 30.6567H23.6507L21.0395 21.0469Z"
        fill="url(#paint11_linear_14_13505)" />
    <defs>
        <linearGradient id="paint0_linear_14_13505" x1="-0.003647" y1="15.4231" x2="86.1858"
            y2="15.4231" gradientUnits="userSpaceOnUse">
            <stop offset="0.17" stop-color="#A677B4" />
            <stop offset="0.19" stop-color="#9F76B4" />
            <stop offset="0.38" stop-color="#7671B4" />
            <stop offset="0.53" stop-color="#5C6FB4" />
            <stop offset="0.62" stop-color="#536EB5" />
            <stop offset="1" stop-color="#194A91" />
        </linearGradient>
        <linearGradient id="paint1_linear_14_13505" x1="-0.00360066" y1="15.4232" x2="86.1859"
            y2="15.4232" gradientUnits="userSpaceOnUse">
            <stop offset="0.17" stop-color="#A677B4" />
            <stop offset="0.19" stop-color="#9F76B4" />
            <stop offset="0.38" stop-color="#7671B4" />
            <stop offset="0.53" stop-color="#5C6FB4" />
            <stop offset="0.62" stop-color="#536EB5" />
            <stop offset="1" stop-color="#194A91" />
        </linearGradient>
        <linearGradient id="paint2_linear_14_13505" x1="-0.00362168" y1="15.4231" x2="86.1859"
            y2="15.4231" gradientUnits="userSpaceOnUse">
            <stop offset="0.17" stop-color="#A677B4" />
            <stop offset="0.19" stop-color="#9F76B4" />
            <stop offset="0.38" stop-color="#7671B4" />
            <stop offset="0.53" stop-color="#5C6FB4" />
            <stop offset="0.62" stop-color="#536EB5" />
            <stop offset="1" stop-color="#194A91" />
        </linearGradient>
        <linearGradient id="paint3_linear_14_13505" x1="-0.0036178" y1="15.4231" x2="86.1859"
            y2="15.4231" gradientUnits="userSpaceOnUse">
            <stop offset="0.17" stop-color="#A677B4" />
            <stop offset="0.19" stop-color="#9F76B4" />
            <stop offset="0.38" stop-color="#7671B4" />
            <stop offset="0.53" stop-color="#5C6FB4" />
            <stop offset="0.62" stop-color="#536EB5" />
            <stop offset="1" stop-color="#194A91" />
        </linearGradient>
        <linearGradient id="paint4_linear_14_13505" x1="-0.00359243" y1="15.4232" x2="86.1859"
            y2="15.4232" gradientUnits="userSpaceOnUse">
            <stop offset="0.17" stop-color="#A677B4" />
            <stop offset="0.19" stop-color="#9F76B4" />
            <stop offset="0.38" stop-color="#7671B4" />
            <stop offset="0.53" stop-color="#5C6FB4" />
            <stop offset="0.62" stop-color="#536EB5" />
            <stop offset="1" stop-color="#194A91" />
        </linearGradient>
        <linearGradient id="paint5_linear_14_13505" x1="-0.00370479" y1="15.4232" x2="86.1858"
            y2="15.4232" gradientUnits="userSpaceOnUse">
            <stop offset="0.17" stop-color="#A677B4" />
            <stop offset="0.19" stop-color="#9F76B4" />
            <stop offset="0.38" stop-color="#7671B4" />
            <stop offset="0.53" stop-color="#5C6FB4" />
            <stop offset="0.62" stop-color="#536EB5" />
            <stop offset="1" stop-color="#194A91" />
        </linearGradient>
        <linearGradient id="paint6_linear_14_13505" x1="-0.00364498" y1="15.4231" x2="86.1858"
            y2="15.4231" gradientUnits="userSpaceOnUse">
            <stop offset="0.17" stop-color="#A677B4" />
            <stop offset="0.19" stop-color="#9F76B4" />
            <stop offset="0.38" stop-color="#7671B4" />
            <stop offset="0.53" stop-color="#5C6FB4" />
            <stop offset="0.62" stop-color="#536EB5" />
            <stop offset="1" stop-color="#194A91" />
        </linearGradient>
        <linearGradient id="paint7_linear_14_13505" x1="-0.00360507" y1="15.4232" x2="86.1859"
            y2="15.4232" gradientUnits="userSpaceOnUse">
            <stop offset="0.17" stop-color="#A677B4" />
            <stop offset="0.19" stop-color="#9F76B4" />
            <stop offset="0.38" stop-color="#7671B4" />
            <stop offset="0.53" stop-color="#5C6FB4" />
            <stop offset="0.62" stop-color="#536EB5" />
            <stop offset="1" stop-color="#194A91" />
        </linearGradient>
        <linearGradient id="paint8_linear_14_13505" x1="-0.00368223" y1="15.4232" x2="86.1858"
            y2="15.4232" gradientUnits="userSpaceOnUse">
            <stop offset="0.17" stop-color="#A677B4" />
            <stop offset="0.19" stop-color="#9F76B4" />
            <stop offset="0.38" stop-color="#7671B4" />
            <stop offset="0.53" stop-color="#5C6FB4" />
            <stop offset="0.62" stop-color="#536EB5" />
            <stop offset="1" stop-color="#194A91" />
        </linearGradient>
        <linearGradient id="paint9_linear_14_13505" x1="-0.0036603" y1="15.4232" x2="86.1858"
            y2="15.4232" gradientUnits="userSpaceOnUse">
            <stop offset="0.17" stop-color="#A677B4" />
            <stop offset="0.19" stop-color="#9F76B4" />
            <stop offset="0.38" stop-color="#7671B4" />
            <stop offset="0.53" stop-color="#5C6FB4" />
            <stop offset="0.62" stop-color="#536EB5" />
            <stop offset="1" stop-color="#194A91" />
        </linearGradient>
        <linearGradient id="paint10_linear_14_13505" x1="-0.00357998" y1="15.4234" x2="86.1859"
            y2="15.4234" gradientUnits="userSpaceOnUse">
            <stop offset="0.17" stop-color="#A677B4" />
            <stop offset="0.19" stop-color="#9F76B4" />
            <stop offset="0.38" stop-color="#7671B4" />
            <stop offset="0.53" stop-color="#5C6FB4" />
            <stop offset="0.62" stop-color="#536EB5" />
            <stop offset="1" stop-color="#194A91" />
        </linearGradient>
        <linearGradient id="paint11_linear_14_13505" x1="-0.00368306" y1="15.4232" x2="86.1858"
            y2="15.4232" gradientUnits="userSpaceOnUse">
            <stop offset="0.17" stop-color="#A677B4" />
            <stop offset="0.19" stop-color="#9F76B4" />
            <stop offset="0.38" stop-color="#7671B4" />
            <stop offset="0.53" stop-color="#5C6FB4" />
            <stop offset="0.62" stop-color="#536EB5" />
            <stop offset="1" stop-color="#194A91" />
        </linearGradient>
    </defs>
</svg>
    